IKResults
version=1
nRows=11
nColumns=40
inDegrees=yes

Units are S.I. units (second, meters, Newtons, ...)
Angles are in degrees.

endheader
time	pelvis_tilt	pelvis_list	pelvis_rotation	pelvis_tx	pelvis_ty	pelvis_tz	hip_flexion_r	hip_adduction_r	hip_rotation_r	knee_angle_r	knee_angle_r_beta	ankle_angle_r	subtalar_angle_r	mtp_angle_r	hip_flexion_l	hip_adduction_l	hip_rotation_l	knee_angle_l	knee_angle_l_beta	ankle_angle_l	subtalar_angle_l	mtp_angle_l	lumbar_extension	lumbar_bending	lumbar_rotation	arm_flex_r	arm_add_r	arm_rot_r	elbow_flex_r	pro_sup_r	wrist_flex_r	wrist_dev_r	arm_flex_l	arm_add_l	arm_rot_l	elbow_flex_l	pro_sup_l	wrist_flex_l	wrist_dev_l
      1.02000000	     21.94254182	      1.49356805	     -2.54200938	     -0.20984513	      0.95684440	     -1.45451218	     -7.33437280	     -2.56159310	     -3.08063724	    -60.87762641	     -1.06251502	      0.99628843	    -18.04235284	     20.87500883	    -19.16713410	     -4.37127438	      9.06529991	    -14.91499285	     -0.26031573	      8.84822367	     -0.33148425	     -7.36166075	    -25.25210470	     -2.70383658	     -0.94438337	     -2.30159640	    -10.33621512	      0.68273843	     24.53628292	     89.95437384	      0.00000000	      0.00000000	     -1.92362225	      7.61601086	      7.13047016	     16.85383978	     89.95437384	      0.00000000	      0.00000000
      1.03000000	     21.64614686	      1.39767011	     -2.26004281	     -0.19943257	      0.95686631	     -1.45555446	     -5.84390110	     -2.34514272	     -3.18995058	    -59.99345161	     -1.04708326	      1.98759799	    -18.16297398	     20.59118696	    -19.65248106	     -4.25102182	      9.25192455	    -14.67336793	     -0.25609858	      9.07819420	     -0.39183070	     -7.27701545	    -24.98752774	     -2.43859122	     -1.21468084	     -2.94960564	    -10.26729720	      0.81853645	     23.57791966	     89.95437384	      0.00000000	      0.00000000	     -0.80117425	      7.82778467	      7.19082523	     17.47835023	     89.95437384	      0.00000000	      0.00000000
      1.04000000	     21.51789838	      0.98426904	     -1.82568911	     -0.18923980	      0.95710461	     -1.45629216	     -4.75154416	     -1.57980666	     -3.08422936	    -58.70642930	     -1.02462048	      3.34338678	    -18.16931830	     20.50646331	    -20.35876769	     -3.77346119	      8.68714681	    -14.39534520	     -0.25124617	      9.40156590	     -0.56893637	     -7.19969044	    -24.94195891	     -1.83714455	     -1.61130063	     -3.29352148	    -10.09143421	      0.80882981	     22.25761684	     89.95437384	      0.00000000	      0.00000000	      0.22832065	      8.04063454	      7.55995920	     18.32094326	     89.95437384	      0.00000000	      0.00000000
      1.05000000	     21.49302730	      0.64261223	     -1.18397240	     -0.17887447	      0.95732794	     -1.45742606	     -3.89915975	     -1.07699548	     -3.58107243	    -57.08222215	     -0.99627272	      4.13786259	    -18.24620990	     20.76084543	    -21.09917298	     -3.27768606	      8.32347348	    -14.22772907	     -0.24832072	      9.79272942	     -0.33136169	     -7.10449435	    -25.01254961	     -1.22635831	     -2.25105134	     -3.81713226	     -9.97054778	      0.77134315	     21.32883130	     89.95437384	      0.00000000	      0.00000000	      1.20757492	      8.22704714	      8.09924704	     19.27665284	     89.95437384	      0.00000000	      0.00000000
      1.06000000	     21.08071854	      0.70808597	     -1.08754139	     -0.16879858	      0.95665844	     -1.45829090	     -2.37577974	     -1.26367423	     -3.87973449	    -55.68447382	     -0.97187741	      4.76191898	    -18.27217998	     20.43697709	    -21.26476732	     -3.39542414	      8.39292205	    -14.32692435	     -0.25005200	     10.02395921	     -0.33565692	     -7.00294597	    -24.67029011	     -1.18490194	     -2.37729416	     -4.59146805	     -9.97304483	      0.86037457	     20.79870221	     89.95437384	      0.00000000	      0.00000000	      2.26346608	      8.44801991	      8.10468268	     20.18065851	     89.95437384	      0.00000000	      0.00000000
      1.07000000	     21.22496645	      0.18764777	     -0.10023607	     -0.15856376	      0.95690717	     -1.45965047	     -2.04038755	     -0.51617911	     -4.64258418	    -53.42524447	     -0.93244642	      5.73401742	    -18.31080880	     20.88261300	    -22.19816662	     -2.61137708	      7.25810095	    -14.17162694	     -0.24734155	     10.68815148	     -0.00225356	     -6.90942790	    -24.92374420	     -0.26590133	     -3.28433972	     -4.88763993	     -9.78503063	      0.49798585	     19.66096441	     89.95437384	      0.00000000	      0.00000000	      3.05180725	      8.78339557	      7.94961504	     21.56031521	     89.95437384	      0.00000000	      0.00000000
      1.08000000	     20.79482177	      0.26046401	      0.07759734	     -0.14851221	      0.95590967	     -1.46052280	     -0.65204217	     -0.70071423	     -4.95841598	    -51.72435324	     -0.90276027	      6.34966880	    -18.35204245	     20.66188005	    -22.38671815	     -2.69232076	      7.23520451	    -14.17654093	     -0.24742732	     10.98574488	     -0.00061437	     -6.81652340	    -24.54925285	     -0.21177548	     -3.50703248	     -5.58066212	     -9.77806540	      0.56435633	     19.11182367	     89.95437384	      0.00000000	      0.00000000	      4.07475002	      9.01443058	      7.84486968	     22.55415304	     89.95437384	      0.00000000	      0.00000000
      1.09000000	     20.92530537	     -0.20090112	      0.93016765	     -0.13844339	      0.95581062	     -1.46152662	     -0.39789969	     -0.13041117	     -5.86791058	    -49.10899288	     -0.85711362	      6.75085920	    -18.23541157	     21.00308942	    -23.21575512	     -1.96909106	      6.21343465	    -14.16887471	     -0.24729352	     11.62583325	      0.37944772	     -6.70973866	    -24.81425600	      0.58408147	     -4.28820825	     -5.90569227	     -9.63515289	      0.24805725	     18.18989125	     89.95437384	      0.00000000	      0.00000000	      4.69426285	      9.49699846	      7.17180134	     24.30775179	     89.95437384	      0.00000000	      0.00000000
      1.10000000	     20.86887291	     -0.33061565	      1.42278958	     -0.12831101	      0.95522252	     -1.46241478	      0.16519191	     -0.07512809	     -6.65037765	    -46.65313363	     -0.81425079	      6.95327715	    -18.19174124	     21.21408480	    -23.87392585	     -1.71597888	      5.64617733	    -14.09144677	     -0.24594214	     12.03058363	      0.74868370	     -6.59353764	    -24.85478605	      0.94154341	     -4.74991026	     -6.47236217	     -9.57437448	      0.01878933	     17.65814754	     89.95437384	      0.00000000	      0.00000000	      5.45591502	      9.94602326	      6.42137818	     25.81407948	     89.95437384	      0.00000000	      0.00000000
      1.11000000	     20.38071637	     -0.18148038	      1.46316385	     -0.11838625	      0.95373689	     -1.46292587	      1.38373701	     -0.37111039	     -6.97343274	    -44.52791480	     -0.77715872	      7.12837884	    -18.03609119	     21.00843035	    -23.97849660	     -1.90504404	      5.70905422	    -14.14714532	     -0.24691427	     12.38288331	      0.80519996	     -6.49552352	    -24.45929693	      0.85610743	     -4.97395714	     -7.06655781	     -9.56841895	     -0.06020409	     17.26417234	     89.95437384	      0.00000000	      0.00000000	      6.29061486	     10.28311134	      6.17071461	     27.03723438	     89.95437384	      0.00000000	      0.00000000
      1.12000000	     20.50165438	     -0.52451186	      2.15760590	     -0.10814873	      0.95317011	     -1.46359877	      1.40655069	     -0.06028014	     -8.19630502	    -41.33388651	     -0.72141241	      6.96788252	    -17.84906361	     21.11994771	    -24.77620500	     -1.30641202	      4.92534368	    -14.19441484	     -0.24773927	     12.95779334	      1.17285603	     -6.40567173	    -24.68752178	      1.46747234	     -5.61030736	     -7.38402943	     -9.42802973	     -0.64528685	     16.54283357	     89.95437384	      0.00000000	      0.00000000	      6.72664396	     10.93310185	      5.12010845	     29.10002166	     89.95437384	      0.00000000	      0.00000000
